<?xml version="1.0" encoding="utf-8"?>
<!-- Generator: Adobe Illustrator 16.0.0, SVG Export Plug-In . SVG Version: 6.00 Build 0)  -->
<!DOCTYPE svg PUBLIC "-//W3C//DTD SVG 1.1//EN" "http://www.w3.org/Graphics/SVG/1.1/DTD/svg11.dtd">
<svg version="1.1" id="Livello_1" xmlns="http://www.w3.org/2000/svg" xmlns:xlink="http://www.w3.org/1999/xlink" x="0px" y="0px"
	 width="146.293px" height="131.461px" viewBox="0 0 146.293 131.461" enable-background="new 0 0 146.293 131.461"
	 xml:space="preserve">
<circle fill="#C63232" cx="73.858" cy="65.731" r="63.032"/>
<ellipse fill="#FFFFFF" cx="77.847" cy="66.116" rx="19.103" ry="19.341"/>
<g>
	<path stroke="#FFFFFF" stroke-miterlimit="10" d="M46.91,98.046c3.294-4.169,6.515-8.246,9.808-12.414
		c-4.358-3.609-7.552-8.146-9.074-13.767c-1.694-6.257-1.409-12.346,1.365-18.299c0.619-1.324,0.739-2.866-0.382-4.185
		c-1.3-1.532-2.444-3.215-3.873-4.613c-1.199-1.175-2.495-1.432-3.839,0.258c-1.55,1.948-3.348,3.733-5.245,5.348
		c-0.703,0.599-2.227,0.979-2.942,0.613c-0.705-0.361-1.098-1.77-1.205-2.765c-0.239-2.224,0.653-4.049,2.026-5.887
		c2.235-2.997,3.923-6.396,6.1-9.441c1.438-2.014,2.686-4.463,5.734-4.686c0.466-0.035,0.802-1.013,1.332-1.229
		c0.924-0.379,2.26-0.991,2.854-0.613c0.664,0.423,1.17,1.999,0.906,2.794c-0.647,1.953-1.727,3.776-2.729,5.596
		c-0.902,1.636-1.933,3.201-2.48,4.097c2.464,2.996,4.748,5.771,7.157,8.7c6.432-7.063,13.945-10.478,22.983-9.813
		c9.053,0.665,16.016,5.085,21.176,12.879c3.395-2.734,6.719-5.412,10.092-8.127c-0.135-0.358-0.164-0.649-0.322-0.839
		c-3.668-4.398-3.926-10.132-5.898-15.19c-0.193-0.492,0.094-1.487,0.5-1.801c0.396-0.304,1.377-0.265,1.854,0.028
		c2.002,1.233,4.053,2.459,5.824,3.991c2.141,1.852,4.363,3.775,5.932,6.087c2.84,4.184,5.322,8.624,7.732,13.076
		c0.674,1.242,0.547,2.906,0.832,4.369c0.127,0.655,0.291,1.322,0.566,1.927c0.584,1.302,0.932,2.81-0.377,3.57
		c-0.967,0.564-2.658,0.734-3.623,0.26c-1.633-0.804-3.174-2.067-4.344-3.476c-2.211-2.666-4.137-5.573-6.166-8.385
		c-0.439-0.606-0.834-1.242-1.322-1.978c-3.275,2.603-6.463,5.052-9.51,7.661c-0.398,0.342-0.328,1.604-0.07,2.287
		c3.436,9.111,2.602,17.735-2.824,25.852c-0.566,0.843-1.369,1.552-2.148,2.228c-0.779,0.675-1.668,1.223-2.857,2.076
		c4.238,3.238,8.275,6.328,12.268,9.377c1.922-1.856,3.721-3.67,5.611-5.388c1.023-0.929,2.125-1.818,3.322-2.501
		c2.227-1.272,5.588-0.288,6.656,2.022c0.34,0.74,0.227,1.984-0.191,2.71c-0.814,1.422-1.834,2.806-3.039,3.918
		c-5.338,4.92-11.143,9.197-17.814,12.176c-1.049,0.469-2.193,0.718-3.805,1.23c1.584-4.74,4.93-7.752,7.52-11.586
		c-4.193-3.221-8.307-6.381-12.389-9.515c-9.91,6.373-19.879,6.097-30.099,0.357c-3.012,4.092-6.039,8.201-9.272,12.593
		c3.6,1.323,5.589,3.59,5.396,7.546c-4.616-0.18-9.441,0.105-13.71-2.116c-3.215-1.673-4.617-4.813-4.287-8.554
		c0.042-0.467-0.008-0.947,0.06-1.413c0.111-0.753,0.088-1.994,0.471-2.146c0.699-0.277,1.818-0.171,2.474,0.237
		c2.237,1.393,4.345,2.991,6.512,4.492C46.408,97.863,46.741,97.97,46.91,98.046z M69.122,83.078
		c2.61-0.383,5.749-1.093,7.429-4.283c1.183-2.248,0.126-4.031-2.334-4.199c-2.769-0.19-5.559-0.153-8.313-0.453
		c-4.06-0.441-4.05-0.53-3.469,3.485C62.913,80.952,65.267,83.071,69.122,83.078z M92.815,65.825
		c0.439-2.027-0.377-3.315-2.488-4.175c-2.688-1.093-3.059-1.057-3.977,1.72c-0.688,2.101-1.262,4.261-2.188,6.253
		c-0.959,2.055-0.709,2.921,1.516,3.611c1.752,0.541,3.27,0.195,4.654-0.973C92.29,70.604,93.108,68.501,92.815,65.825z"/>
</g>
</svg>
