<?xml version="1.0" encoding="utf-8"?>
<!-- Generator: Adobe Illustrator 16.0.0, SVG Export Plug-In . SVG Version: 6.00 Build 0)  -->
<!DOCTYPE svg PUBLIC "-//W3C//DTD SVG 1.1//EN" "http://www.w3.org/Graphics/SVG/1.1/DTD/svg11.dtd">
<svg version="1.1" id="Livello_1" xmlns="http://www.w3.org/2000/svg" xmlns:xlink="http://www.w3.org/1999/xlink" x="0px" y="0px"
	 width="388px" height="381px" viewBox="0 0 388 381" enable-background="new 0 0 388 381" xml:space="preserve">
<g id="Livello_2_1_">
	<circle fill="#C63232" cx="192.828" cy="190.71" r="183.197"/>
	<g>
		<g>
			<path d="M197.984,312.339c-0.373-1.068-0.021-1.93,0.81-2.445c1.237-0.771,2.526-1.496,3.877-2.028
				c2.726-1.068,5.51-1.99,8.271-2.978c0.268-0.096,0.524-0.205,0.867-0.346c-1.973-4.922-2.426-10.144-3.357-15.31
				c-27.572,4.707-53.133-0.385-76.703-15.547c-3.444,4.304-6.887,8.597-10.385,12.966c0.83,0.862,1.729,1.78,2.602,2.729
				c3.729,4.049,7.041,8.408,9.626,13.299c1.292,2.438,1.719,5.107,2.149,7.771c0.164,1.002,0.192,2.041,0.192,3.065
				c0,1.416-1.481,2.611-3.036,2.604c-0.988-0.006-1.982-0.201-2.975-0.254c-0.293-0.021-0.592,0.162-0.893,0.223
				c-0.336,0.068-0.729,0.24-1.013,0.135c-1.2-0.461-2.368-1.008-3.553-1.521c-0.601-0.269-1.185-0.586-1.8-0.797
				c-8.971-3.017-17.26-7.285-24.471-13.472c-5.5-4.721-9.458-10.467-11.197-17.61c-0.665-2.707-0.734-5.474-0.568-8.228
				c0.159-2.648,1.634-4.646,3.697-6.229c0.058-0.046,0.158-0.033,0.296-0.056c0.076,0.176,0.154,0.353,0.217,0.533
				c0.055,0.156,0.08,0.322,0.133,0.533c0.129-0.072,0.251-0.104,0.309-0.187c0.737-0.998,1.563-0.891,2.644-0.465
				c9.313,3.639,17.646,8.832,25.071,15.513c0.083,0.075,0.183,0.137,0.129,0.098c3.176-4.318,6.34-8.615,9.551-12.98
				c-0.146-0.115-0.409-0.319-0.681-0.524c-19.877-14.957-32.737-34.48-38.198-58.804c-1.259-5.627-1.91-11.336-2.11-17.098
				c-0.025-0.607-0.176-0.883-0.821-1.041c-2.831-0.711-5.648-1.504-8.48-2.262c-0.153-0.045-0.321-0.049-0.541-0.086
				c0.307,1.922,0.659,3.778,0.892,5.645c0.516,4.15,0.743,8.316,0.225,12.469c-0.268,2.175-0.65,4.343-1.664,6.341
				c-1.133,2.233-2.518,2.825-4.843,1.952c-1.209-0.448-2.401-0.954-3.577-1.485c-1.804-0.83-2.998-2.316-3.969-3.963
				c-1.975-3.353-2.925-7.029-3.334-10.877c-0.755-7.047,0.438-13.917,1.772-20.786c0.354-1.828,0.583-3.687,1.013-5.496
				c0.295-1.252,0.821-2.439,1.25-3.656c0.029-0.077,0.088-0.16,0.158-0.197c1.397-0.757,2.648-1.827,4.375-1.872
				c0.783-0.021,1.233,0.23,1.48,0.978c0.896,2.729,1.862,5.434,2.729,8.171c0.847,2.682,1.602,5.393,2.411,8.146
				c2.968-0.872,5.647,0.488,8.424,1.157c0.8,0.192,1.583,0.461,2.426,0.709c1.142-25.926,10.916-48.044,28.982-66.588
				c-4.465-7.931-8.662-16.036-15.291-22.622c-1.359,1.143-2.697,2.262-4.022,3.393c-4.202,3.581-8.405,7.155-12.599,10.746
				c-2.651,2.271-5.728,3.811-8.888,5.213c-0.204,0.087-0.387,0.229-0.557,0.368c-1.386,1.113-2.765,2.228-4.149,3.342
				c-0.521,0.423-0.945,0.373-1.375-0.197c-0.479-0.64-0.777-1.383-1.597-1.828c-0.334-0.181-0.325-1.339-0.188-1.992
				c1.034-4.885,4.127-8.667,6.929-12.576c12.836-17.904,33.068-33.217,52.551-41.948c3.313-1.487,3.329-1.526,6.336,0.494
				c0.194,0.131,0.379,0.266,0.571,0.39c1.496,0.985,1.765,1.608,0.725,3.076c-1.384,1.962-2.833,3.942-4.563,5.59
				c-5.188,4.928-10.478,9.752-15.813,14.516c-3.731,3.334-7.601,6.506-11.407,9.752c-0.17,0.144-0.328,0.309-0.521,0.494
				c7.004,5.867,12.043,13.292,17.006,20.756c21.824-19.244,47.268-27.998,76.306-26.675c0.149-1.792,0.271-3.592,0.462-5.381
				c0.191-1.795,0.469-3.584,0.725-5.483c-1.258-0.104-2.512-0.17-3.754-0.317c-5.645-0.682-11.291-1.333-16.924-2.094
				c-2.105-0.288-3.707-1.771-5.49-2.791c-0.524-0.298-0.234-0.73,0.158-0.931c1.994-1.002,3.898-2.23,6.244-2.526
				c-0.722-0.638-0.217-0.906,0.326-1.202c2.477-1.346,5.155-2.047,7.904-2.532c5.828-1.03,11.701-1.375,17.6-1.01
				c6.208,0.387,12.327,1.353,18.16,3.642c1.32,0.52,2.531,1.339,3.746,2.085c0.667,0.412,1.01,1.063,0.992,1.894
				c-0.021,1.149,0.066,2.3,0,3.443c-0.021,0.338-0.336,0.76-0.639,0.958c-2.656,1.748-5.72,1.857-8.722,1.882
				c-4.742,0.036-9.487-0.17-14.228-0.269c-0.371-0.005-0.744,0-1.231,0c-0.356,3.661-0.714,7.302-1.071,10.971
				c29.875,3.759,53.961,17.293,72.229,41.31c5.881-4.692,11.78-9.394,17.749-14.159c-0.148-0.247-0.303-0.511-0.467-0.767
				c-2.658-4.133-5.356-8.245-7.979-12.399c-2.116-3.359-3.61-6.997-4.459-10.872c-0.224-1.026-0.201-2.113-0.181-3.167
				c0.01-0.373,0.26-0.834,0.545-1.092c3.037-2.744,6.656-3.228,10.229-1.119c0.469,0.275,0.938,0.556,1.396,0.85
				c0.167,0.104,0.423,0.233,0.444,0.378c0.246,1.722,1.717,2.521,2.756,3.617c7.539,7.937,14.117,16.559,18.828,26.502
				c2.821,5.955,4.638,12.233,5.681,18.72c0.489,3.024,0.709,6.098,0.846,9.16c0.156,3.375-0.719,6.58-2.226,9.602
				c-0.908,1.825-2.061,2.176-3.393,0.651c-2.176-2.472-4.318-5.022-6.084-7.795c-5.85-9.229-10.598-19.019-14.115-29.389
				c-0.086-0.258-0.207-0.504-0.349-0.845c-5.463,5.443-11.394,10.146-17.413,14.81c10.545,15.8,16.297,33.104,16.84,52.035
				c0.549,18.905-4.176,36.487-13.764,52.782c5.652,2.287,11.277,4.563,17.055,6.901c0.041-0.053,0.228-0.286,0.402-0.532
				c4.161-5.976,8.432-11.857,13.369-17.226c2.248-2.442,4.718-4.627,7.514-6.43c1.463-0.947,2.864-1.031,4.291,0.057
				c0.868,0.672,1.789,1.256,2.668,1.906c1.478,1.09,1.921,2.668,1.986,4.391c0.088,2.349-0.353,4.632-0.966,6.888
				c-1.575,5.742-4.184,11.028-7.194,16.133c-6.703,11.32-15.188,21.102-25.438,29.357c-3.217,2.588-6.86,4.391-10.621,5.987
				c-1.793,0.767-2.649,0.029-2.482-1.932c0.48-5.645,2.286-10.877,4.824-15.883c0.232-0.461,0.431-0.941,0.678-1.4
				c0.914-1.646,1.326-3.438,1.781-5.26c0.458-1.834,1.348-3.599,2.258-5.273c1.131-2.063,2.48-4.002,3.736-5.998
				c0.178-0.28,0.348-0.565,0.506-0.826c-2.164-0.516-4.314-0.825-6.309-1.561c-3.498-1.289-6.906-2.828-10.338-4.299
				c-0.551-0.236-0.816-0.195-1.176,0.319c-14.926,21.263-35.098,34.843-60.252,41.128c-0.247,0.061-0.503,0.123-0.752,0.184
				c-0.05,0.017-0.107,0.049-0.311,0.154c0.951,4.867,1.903,9.781,2.875,14.768c1.857-0.699,3.5-1.299,5.123-1.938
				c3.381-1.328,6.912-1.742,10.502-1.633c0.914,0.028,1.854,0.381,2.703,0.752c0.773,0.34,1.055,1.016,0.834,1.938
				c-0.957,3.91-3.193,6.92-6.515,9.094c-6.321,4.142-13.233,6.648-20.827,7c-2.041,0.091-4.115-0.276-6.156-0.563
				c-2.098-0.285-3.315-1.836-4.363-3.484C196.184,313.661,196.957,312.509,197.984,312.339z M176.164,265.476
				c0.459,0,0.918,0.027,1.376-0.002c2.636-0.186,5.022-0.934,6.817-3.021c0.168-0.199,0.475-0.306,0.735-0.408
				c2.127-0.863,3.485-2.369,3.94-4.648c0.371-1.834,0.8-3.649,1.119-5.488c0.301-1.737-0.006-3.358-1.096-4.811
				c-1.305-1.74-2.947-3.125-4.882-4.023c-3.354-1.551-6.802-2.928-10.226-4.329c-2.834-1.16-5.828-1.857-8.513-3.472
				c-5.54-3.326-11.394-5.981-17.704-7.514c-2.994-0.73-6.009-1.084-9.052-0.398c-2.351,0.529-4.667,1.179-7.007,1.771
				c-1.6,0.401-2.959,1.143-3.994,2.51c-0.953,1.246-1.117,2.197-0.27,3.523c0.332,0.534,0.758,1.018,1.054,1.565
				c1.468,2.736,3.556,4.941,5.815,7c3.143,2.865,6.323,5.693,9.498,8.527c4.043,3.621,8.398,6.774,13.408,8.961
				C163.242,263.861,169.602,265.13,176.164,265.476z M268.492,212.033c0-0.373,0.035-0.752-0.004-1.118
				c-0.263-2.476-1.174-4.479-3.776-5.328c-1.222-0.402-2.396-0.949-3.593-1.443c-0.826-0.342-1.674-0.336-2.409,0.121
				c-1.589,0.971-3.271,1.854-4.654,3.07c-5.114,4.516-9.438,9.731-12.836,15.647c-1.877,3.285-3.675,6.674-2.667,10.724
				c0.27,1.079,0.234,2.295,0.742,3.235c0.486,0.912,0.771,1.793,0.871,2.789c0.064,0.599,0.213,1.188,0.255,1.783
				c0.058,0.756,0.479,0.881,1.06,0.643c1.026-0.43,2.027-0.909,3.043-1.354c0.274-0.115,0.627-0.312,0.858-0.226
				c1.216,0.437,2.377,0.193,3.39-0.432c2.752-1.697,5.582-3.326,8.139-5.299c3.557-2.752,5.955-6.504,7.947-10.5
				C266.794,220.46,268.171,216.402,268.492,212.033z M125.965,152.999c-0.02-0.074-0.038-0.148-0.053-0.221
				c-1.106,0.229-2.291,0.275-3.289,0.73c-1.781,0.804-3.182,2.14-4.188,3.847c-0.473,0.79-0.959,1.57-1.465,2.335
				c-0.912,1.386-1.372,2.878-1.292,4.552c0.238,5.517,2.068,10.565,4.486,15.434c0.941,1.893,2.029,1.893,3.334,0.129
				c2.335-3.159,4.564-6.37,4.878-10.47c0.008-0.081,0.041-0.167,0.065-0.246c0.935-2.959,1.9-5.911,2.797-8.88
				c0.56-1.851,0.789-3.716-0.188-5.532c-0.486-0.906-1.188-1.427-2.25-1.463C127.849,153.18,126.906,153.076,125.965,152.999z
				 M210.08,261.509c3.418-0.525,6.283-1.793,8.18-4.691c0.229-0.352,0.293-0.951,0.167-1.358c-0.338-1.146-0.845-2.246-1.228-3.386
				c-0.293-0.881-0.81-1.118-1.709-0.92c-1.807,0.41-3.644,0.705-5.448,1.119c-0.744,0.174-1.609,0.348-2.136,0.832
				c-1.627,1.484-3.199,3.047-4.625,4.717c-0.887,1.043-0.418,2.281,0.91,2.593C206.162,260.874,208.175,261.167,210.08,261.509z"/>
			<path fill="#FFFFFF" d="M176.164,265.476c-6.563-0.354-12.922-1.615-18.979-4.256c-5.012-2.188-9.368-5.342-13.411-8.963
				c-3.172-2.834-6.353-5.656-9.496-8.521c-2.259-2.063-4.349-4.27-5.813-7c-0.295-0.553-0.721-1.037-1.061-1.567
				c-0.844-1.326-0.677-2.281,0.272-3.527c1.038-1.367,2.394-2.104,3.994-2.51c2.338-0.586,4.661-1.234,7.011-1.765
				c3.04-0.686,6.059-0.329,9.047,0.394c6.315,1.531,12.168,4.193,17.703,7.514c2.689,1.613,5.68,2.313,8.514,3.472
				c3.428,1.401,6.871,2.778,10.229,4.336c1.935,0.893,3.577,2.276,4.882,4.018c1.09,1.451,1.393,3.078,1.094,4.816
				c-0.322,1.832-0.756,3.653-1.117,5.481c-0.459,2.279-1.813,3.785-3.94,4.648c-0.263,0.108-0.567,0.209-0.735,0.408
				c-1.799,2.094-4.187,2.836-6.817,3.022C177.082,265.505,176.623,265.476,176.164,265.476z"/>
			<path fill="#FFFFFF" d="M268.492,212.033c-0.321,4.369-1.698,8.427-3.635,12.314c-1.994,3.996-4.393,7.748-7.947,10.5
				c-2.553,1.973-5.385,3.602-8.139,5.299c-1.012,0.625-2.17,0.867-3.391,0.433c-0.23-0.087-0.584,0.108-0.854,0.225
				c-1.021,0.443-2.021,0.924-3.047,1.354c-0.58,0.238-1.004,0.107-1.06-0.643c-0.044-0.596-0.19-1.186-0.252-1.783
				c-0.099-0.996-0.39-1.877-0.876-2.789c-0.504-0.94-0.471-2.155-0.742-3.235c-1.005-4.05,0.795-7.438,2.672-10.724
				c3.395-5.916,7.717-11.133,12.831-15.647c1.384-1.217,3.065-2.101,4.653-3.07c0.736-0.457,1.588-0.463,2.416-0.121
				c1.189,0.494,2.365,1.041,3.589,1.443c2.606,0.85,3.513,2.854,3.778,5.328C268.527,211.281,268.492,211.66,268.492,212.033z"/>
			<path fill="#FFFFFF" d="M125.965,152.999c0.941,0.076,1.885,0.181,2.831,0.214c1.063,0.039,1.769,0.557,2.253,1.46
				c0.975,1.818,0.749,3.688,0.189,5.532c-0.899,2.974-1.862,5.923-2.801,8.881c-0.025,0.082-0.06,0.168-0.063,0.25
				c-0.313,4.1-2.542,7.309-4.881,10.467c-1.301,1.767-2.389,1.767-3.336-0.132c-2.418-4.862-4.243-9.917-4.485-15.428
				c-0.075-1.679,0.385-3.171,1.293-4.555c0.504-0.766,0.991-1.542,1.463-2.332c1.009-1.707,2.408-3.043,4.188-3.847
				c1-0.456,2.188-0.505,3.293-0.733C125.927,152.853,125.945,152.927,125.965,152.999z"/>
			<path fill="#FFFFFF" d="M210.08,261.509c-1.905-0.342-3.918-0.635-5.889-1.096c-1.328-0.312-1.797-1.55-0.91-2.593
				c1.426-1.67,2.998-3.231,4.625-4.717c0.525-0.484,1.392-0.658,2.136-0.832c1.806-0.414,3.643-0.709,5.448-1.119
				c0.899-0.198,1.416,0.039,1.709,0.92c0.383,1.14,0.89,2.24,1.228,3.386c0.126,0.407,0.062,1.008-0.167,1.358
				C216.363,259.716,213.496,260.982,210.08,261.509z"/>
		</g>
	</g>
</g>
</svg>
